  <svg width="766" height="775" viewBox="0 0 766 775" fill="none" xmlns="http://www.w3.org/2000/svg">
    <path fill-rule="evenodd" clip-rule="evenodd" d="M164 382C183.742 252.931 215.5 175.5 370 170C524.5 164.5 587.215 253.362 616.5 382C594.557 535.536 537.5 622.5 407 626.5C276.5 630.5 177.535 542.284 164 382ZM537.5 382C533.11 499.567 501.649 531.549 407 543.5C367.686 539.053 337.212 532.61 313.513 518C278.821 496.614 258.644 457.73 246.5 382C248.629 373.989 250.806 366.503 253.066 359.5C274.711 292.436 304.513 270.496 361 257.496C417.487 244.496 383.64 257.052 390 257.496C493.934 264.74 517.501 301.999 537.5 382Z" fill="#F70000"/>
    <path d="M765 382C784.5 3.99979 175.5 -227.5 1.5 349H81C129.848 202.86 177 70.4999 370 77.9999C563 85.4999 661.207 171.236 692 382C661.311 595.681 616.5 696.5 407 702C197.5 707.5 77.3533 592.796 81 349H1.5C6.33666 493.934 43.5214 585.951 128 679.5C255.649 773.969 381.5 790.5 499 760C616.5 729.5 745.5 760 765 382Z" fill="#F70000"/>
    <path d="M390 257.496L361 359.5H253.066L340.5 424L313.513 518L390 468L473 518L447.5 424L524.5 359.5H432.5L390 257.496Z" fill="#0500F7"/>
    <path fill-rule="evenodd" clip-rule="evenodd" d="M370 77.9999C177 70.4999 129.848 202.86 81 349C77.3533 592.796 197.5 707.5 407 702C616.5 696.5 661.311 595.681 692 382C661.207 171.236 563 85.4999 370 77.9999ZM370 170C215.5 175.5 183.742 252.931 164 382C177.535 542.284 276.5 630.5 407 626.5C537.5 622.5 594.557 535.536 616.5 382C587.215 253.362 524.5 164.5 370 170Z" fill="white"/>
    <path d="M246.5 382C258.644 457.73 278.821 496.614 313.513 518L340.5 424L253.066 359.5C250.806 366.503 248.629 373.989 246.5 382Z" fill="#FFF8F8"/>
    <path d="M1.5 349L1.02133 348.855L0.997531 348.934L1.00028 349.016L1.5 349ZM128 679.5L127.629 679.835L127.662 679.872L127.703 679.902L128 679.5ZM692 382L692.495 382.071L692.505 381.999L692.495 381.928L692 382ZM164 382L163.506 381.924L163.497 381.983L163.502 382.042L164 382ZM616.5 382L616.995 382.071L617.008 381.979L616.988 381.889L616.5 382ZM246.5 382L246.017 381.871L245.989 381.974L246.006 382.079L246.5 382ZM537.5 382L538 382.018L538.002 381.947L537.985 381.879L537.5 382ZM407 543.5L406.944 543.997L407.003 544.003L407.063 543.996L407 543.5ZM361 359.5V360H361.378L361.481 359.637L361 359.5ZM432.5 359.5L432.038 359.692L432.167 360H432.5V359.5ZM524.5 359.5L524.821 359.883L525.876 359H524.5V359.5ZM447.5 424L447.179 423.616L446.934 423.822L447.017 424.131L447.5 424ZM473 518L472.742 518.428L473.809 519.071L473.483 517.869L473 518ZM390 468L390.258 467.571L389.989 467.41L389.726 467.581L390 468ZM313.513 518L313.25 518.425L313.25 518.425L313.513 518ZM340.5 424L340.981 424.138L341.076 423.804L340.797 423.597L340.5 424ZM1.97867 349.144C45.4526 205.106 116.08 111.59 197.22 58.2064C278.359 4.82356 370.053 -8.45573 455.718 8.05318C627.08 41.0771 774.236 193.266 764.501 381.974L765.499 382.026C775.264 192.734 627.67 40.1724 455.907 7.07124C370.01 -9.48239 278.047 3.83203 196.67 57.371C115.295 110.91 44.5474 204.644 1.02133 348.855L1.97867 349.144ZM764.501 381.974C754.752 570.951 717.633 657.642 668.42 700.937C643.815 722.583 616.149 733.416 587.268 740.742C572.824 744.405 558.086 747.19 543.272 750.014C528.463 752.837 513.58 755.699 498.874 759.516L499.126 760.484C513.795 756.676 528.646 753.82 543.459 750.996C558.266 748.173 573.035 745.384 587.514 741.711C616.476 734.365 644.31 723.479 669.08 701.688C718.617 658.108 755.748 571.049 765.499 382.026L764.501 381.974ZM498.874 759.516C381.521 789.978 255.826 773.478 128.297 679.098L127.703 679.902C255.472 774.461 381.479 791.022 499.126 760.484L498.874 759.516ZM128.371 679.165C43.9783 585.711 6.83279 493.81 1.99972 348.983L1.00028 349.016C5.84053 494.059 43.0645 586.191 127.629 679.835L128.371 679.165ZM1.5 349.5H81V348.5H1.5V349.5ZM81.4742 349.158C105.905 276.068 129.879 206.54 171.827 156.205C213.738 105.915 273.621 74.755 369.981 78.4996L370.019 77.5003C273.379 73.7449 213.186 105.015 171.059 155.565C128.968 206.07 104.943 275.792 80.5258 348.841L81.4742 349.158ZM369.981 78.4996C466.415 82.247 539.082 105.537 591.488 154.143C643.897 202.751 676.117 276.748 691.505 382.072L692.495 381.928C677.09 276.488 644.81 202.235 592.168 153.409C539.522 104.581 466.585 81.2529 370.019 77.5003L369.981 78.4996ZM691.505 381.929C676.16 488.777 657.295 567.275 616.161 619.759C575.062 672.198 511.659 698.752 406.987 701.5L407.013 702.5C511.841 699.748 575.593 673.142 616.948 620.376C658.266 567.656 677.152 488.904 692.495 382.071L691.505 381.929ZM406.987 701.5C302.328 704.248 220.073 676.97 164.432 618.641C108.786 560.307 79.6777 470.83 81.4999 349.007L80.5001 348.992C78.6756 470.966 107.817 560.74 163.708 619.331C219.604 677.928 302.172 705.252 407.013 702.5L406.987 701.5ZM164.494 382.075C174.365 317.54 187.228 266.042 216.852 229.979C246.448 193.951 292.85 173.247 370.018 170.5L369.982 169.5C292.65 172.253 245.923 193.015 216.079 229.344C186.264 265.639 173.377 317.391 163.506 381.924L164.494 382.075ZM370.018 170.5C447.161 167.754 501.322 188.563 539.857 226.057C578.409 263.567 601.379 317.832 616.012 382.111L616.988 381.889C602.336 317.53 579.307 263.045 540.554 225.34C501.785 187.618 447.339 166.747 369.982 169.5L370.018 170.5ZM616.005 381.929C605.038 458.664 585.306 518.683 552.069 560.013C518.854 601.316 472.111 624.004 406.985 626L407.015 627C472.389 624.996 519.424 602.202 552.848 560.639C586.251 519.103 606.019 458.872 616.995 382.071L616.005 381.929ZM406.985 626C341.856 627.997 284.626 606.984 241.987 565.498C199.345 524.009 171.258 462.006 164.498 381.958L163.502 382.042C170.277 462.277 198.44 524.524 241.289 566.215C284.142 607.908 341.644 629.003 407.015 627L406.985 626ZM537 381.981C534.806 440.75 525.844 477.987 505.714 502.035C485.596 526.068 454.235 537.032 406.937 543.004L407.063 543.996C454.414 538.017 486.108 527.015 506.481 502.677C526.841 478.354 535.804 440.817 538 382.018L537 381.981ZM361.112 257.983C375.233 254.733 383.689 253.085 388.533 252.445C390.966 252.123 392.444 252.062 393.262 252.162C393.686 252.214 393.836 252.3 393.868 252.328C393.87 252.33 393.849 252.309 393.842 252.269C393.836 252.238 393.847 252.234 393.831 252.274C393.795 252.369 393.684 252.531 393.455 252.759C393.237 252.977 392.95 253.219 392.616 253.478C391.938 254.006 391.156 254.541 390.431 255.079C390.079 255.341 389.745 255.6 389.471 255.843C389.206 256.078 388.957 256.332 388.811 256.587C388.737 256.716 388.666 256.884 388.664 257.076C388.661 257.289 388.743 257.486 388.897 257.637C389.035 257.773 389.211 257.851 389.377 257.9C389.548 257.949 389.745 257.979 389.965 257.994L390.035 256.997C389.857 256.984 389.736 256.963 389.658 256.94C389.576 256.916 389.574 256.9 389.597 256.923C389.635 256.961 389.665 257.025 389.664 257.089C389.663 257.132 389.649 257.135 389.679 257.084C389.739 256.978 389.883 256.814 390.134 256.591C390.376 256.377 390.682 256.138 391.027 255.882C391.699 255.383 392.55 254.797 393.231 254.268C393.577 253.998 393.901 253.727 394.162 253.466C394.413 253.215 394.649 252.932 394.764 252.634C394.825 252.478 394.862 252.292 394.826 252.092C394.789 251.885 394.681 251.712 394.531 251.579C394.259 251.339 393.846 251.226 393.383 251.17C392.428 251.052 390.839 251.131 388.402 251.453C383.507 252.101 375.01 253.758 360.888 257.008L361.112 257.983ZM389.965 257.994C441.887 261.614 473.623 272.724 494.882 292.827C516.152 312.94 527.017 342.127 537.015 382.121L537.985 381.879C527.984 341.872 517.066 312.429 495.569 292.101C474.061 271.763 442.046 260.622 390.035 256.997L389.965 257.994ZM361.481 359.637L390.481 257.632L389.519 257.359L360.519 359.363L361.481 359.637ZM432.5 360H524.5V359H432.5V360ZM524.179 359.116L447.179 423.616L447.821 424.383L524.821 359.883L524.179 359.116ZM447.017 424.131L472.517 518.131L473.483 517.869L447.983 423.869L447.017 424.131ZM473.258 517.572L390.258 467.571L389.742 468.428L472.742 518.428L473.258 517.572ZM407.056 543.003C367.751 538.558 337.374 532.122 313.775 517.574L313.25 518.425C337.051 533.098 367.621 539.549 406.944 543.997L407.056 543.003ZM313.775 517.574C279.275 496.306 259.131 457.611 246.994 381.921L246.006 382.079C258.157 457.849 278.367 496.921 313.25 518.425L313.775 517.574ZM389.726 467.581L313.239 517.581L313.786 518.418L390.274 468.418L389.726 467.581ZM246.983 382.128C249.11 374.125 251.285 366.647 253.542 359.653L252.591 359.346C250.327 366.359 248.147 373.854 246.017 381.871L246.983 382.128ZM253.542 359.653C264.35 326.167 277.175 304.007 294.301 288.595C311.428 273.184 332.906 264.474 361.112 257.983L360.888 257.008C332.607 263.517 310.94 272.278 293.633 287.852C276.325 303.426 263.427 325.769 252.591 359.346L253.542 359.653ZM340.797 423.597L253.363 359.097L252.77 359.902L340.203 424.402L340.797 423.597ZM313.993 518.138L340.981 424.138L340.019 423.862L313.032 517.862L313.993 518.138ZM253.066 360H361V359H253.066V360ZM389.538 257.688L432.038 359.692L432.962 359.307L390.462 257.303L389.538 257.688Z" fill="black"/>
    </svg>
    