<svg width="85" height="84" viewBox="0 0 85 84" fill="none" xmlns="http://www.w3.org/2000/svg">
    <path fill-rule="evenodd" clip-rule="evenodd" d="M19 0C8.50659 0 0 8.50659 0 19V65C0 75.4934 8.50659 84 19 84H66C76.4934 84 85 75.4934 85 65V19C85 8.50659 76.4934 0 66 0H19ZM22 6C13.1634 6 6 13.1634 6 22V63C6 71.8366 13.1634 79 22 79H64C72.8366 79 80 71.8366 80 63V22C80 13.1634 72.8366 6 64 6H22Z" fill="white"/>
    <path d="M18 52.5C18 52.5 11.3219 55.7738 11.5 59.5C10.5309 64.0218 11.4799 65.3645 16 65.5L22 59.5C22 59.5 26.9612 55.6145 31 59.5C37.7629 64.7733 40.8937 64.5626 45.5 59.5L55 49C57.5384 46.3909 58.9616 46.7795 61.5 49L69.5 57.5C73.1326 58.7736 74.3952 58.0009 74.5 52.5L67 45C59.7753 37.0905 55.7247 38.1789 48.5 45L42.5 52.5C39.7017 56.1023 37.8783 56.3622 34 52.5C27.1668 46.6002 23.7441 47.4121 18 52.5Z" fill="white"/>
    </svg>
    