<svg id="visual" viewBox="0 0 390 844" width="390" height="844" xmlns="http://www.w3.org/2000/svg" xmlns:xlink="http://www.w3.org/1999/xlink" version="1.1"><rect x="0" y="0" width="390" height="844" fill="#ffffff"></rect><defs><linearGradient id="grad1_0" x1="0%" y1="0%" x2="100%" y2="100%"><stop offset="30%" stop-color="#ffffff" stop-opacity="1"></stop><stop offset="70%" stop-color="#ffffff" stop-opacity="1"></stop></linearGradient></defs><defs><linearGradient id="grad2_0" x1="0%" y1="0%" x2="100%" y2="100%"><stop offset="30%" stop-color="#ffffff" stop-opacity="1"></stop><stop offset="70%" stop-color="#ffffff" stop-opacity="1"></stop></linearGradient></defs><g transform="translate(390, 0)"><path d="M0 117C-21.4 114.5 -42.9 112 -58.5 101.3C-74.1 90.6 -83.9 71.8 -92.7 53.5C-101.4 35.2 -109.2 17.6 -117 0L0 0Z" fill="#9772FB"></path></g><g transform="translate(0, 844)"><path d="M0 -117C12.3 -100 24.6 -83 43.5 -75.3C62.4 -67.7 88 -69.5 101.3 -58.5C114.7 -47.5 115.8 -23.8 117 0L0 0Z" fill="#9772FB"></path></g></svg>