<svg id="visual" viewBox="0 0 900 600" width="900" height="600" xmlns="http://www.w3.org/2000/svg" xmlns:xlink="http://www.w3.org/1999/xlink" version="1.1"><rect x="0" y="0" width="900" height="600" fill="#ffffff"></rect><defs><linearGradient id="grad1_0" x1="33.3%" y1="0%" x2="100%" y2="100%"><stop offset="20%" stop-color="#ffffff" stop-opacity="1"></stop><stop offset="80%" stop-color="#ffffff" stop-opacity="1"></stop></linearGradient></defs><defs><linearGradient id="grad2_0" x1="0%" y1="0%" x2="66.7%" y2="100%"><stop offset="20%" stop-color="#ffffff" stop-opacity="1"></stop><stop offset="80%" stop-color="#ffffff" stop-opacity="1"></stop></linearGradient></defs><g transform="translate(900, 0)"><path d="M0 135.2C-19.8 135.6 -39.6 136 -51.7 124.9C-63.9 113.9 -68.4 91.4 -77.1 77.1C-85.8 62.8 -98.6 56.6 -109 45.2C-119.4 33.7 -127.3 16.8 -135.2 0L0 0Z" fill="#9772FB"></path></g><g transform="translate(0, 600)"><path d="M0 -135.2C11.5 -119.4 22.9 -103.7 41.3 -99.8C59.7 -95.9 85 -103.9 95.6 -95.6C106.2 -87.3 102.1 -62.7 106.2 -44C110.4 -25.4 122.8 -12.7 135.2 0L0 0Z" fill="#9772FB"></path></g></svg>
